<?xml version="1.0" encoding="UTF-8" standalone="no"?>
<svg width="20px" height="20px" viewBox="0 0 20 20" version="1.1" xmlns="http://www.w3.org/2000/svg" xmlns:xlink="http://www.w3.org/1999/xlink">
    <!-- Generator: Sketch 3.8.3 (29802) - http://www.bohemiancoding.com/sketch -->
    <title>Facebook</title>
    <desc>Created with Sketch.</desc>
    <defs></defs>
    <g id="Omri" stroke="none" stroke-width="1" fill="none" fill-rule="evenodd">
        <g id="Sign-In" transform="translate(-519.000000, -353.000000)" fill="#FFFFFF">
            <g id="button-fb" transform="translate(500.000000, 334.000000)">
                <path d="M39,37.8962436 C39,38.5058702 38.5058702,39 37.8962436,39 L32.7996786,39 L32.7996786,31.2551824 L35.3994443,31.2551824 L35.7889733,28.2364686 L32.7996786,28.2364686 L32.7996786,26.3095258 C32.7996786,25.4356732 33.0426575,24.8402114 34.2956879,24.8402114 L35.8941189,24.8391218 L35.8941189,22.1396584 C35.6179074,22.1026123 34.6688731,22.0208929 33.5651167,22.0208929 C31.2606303,22.0208929 29.6829016,23.4275558 29.6829016,26.0104328 L29.6829016,28.2364686 L27.0765983,28.2364686 L27.0765983,31.2551824 L29.6829016,31.2551824 L29.6829016,39 L20.1037564,39 C19.4941298,39 19,38.5058702 19,37.8962436 L19,20.1037564 C19,19.4941298 19.4941298,19 20.1037564,19 L37.8962436,19 C38.5058702,19 39,19.4941298 39,20.1037564 L39,37.8962436" id="Facebook"></path>
            </g>
        </g>
    </g>
</svg>